<svg width="41" height="41" viewBox="0 0 41 41" fill="none" xmlns="http://www.w3.org/2000/svg">
    <rect x="0.244141" y="0.429932" width="40" height="40" rx="20" fill="#2D6F8F" />
    <path
        d="M15.5254 10.6572C14.441 10.7697 13.6066 11.0729 12.7754 11.6541C12.091 12.1354 11.4254 12.901 11.0566 13.6385C10.8223 14.1041 10.6066 14.7885 10.5191 15.3572C10.4598 15.7447 10.4598 25.0916 10.5191 25.4822C10.7066 26.6979 11.2379 27.7572 12.091 28.6041C12.9629 29.4729 13.9816 29.9666 15.2848 30.1541C15.7879 30.226 24.6973 30.226 25.2035 30.1541C26.4973 29.9697 27.5285 29.4697 28.3973 28.6041C29.2504 27.7572 29.7816 26.6979 29.9691 25.4822C30.0285 25.0916 30.0285 15.7447 29.9691 15.3572C29.8473 14.5791 29.5629 13.7947 29.191 13.2166C28.4066 12.001 27.2723 11.1697 25.9223 10.8229C25.2535 10.651 25.5473 10.6604 20.4004 10.6541C17.7785 10.651 15.5848 10.651 15.5254 10.6572ZM25.8223 14.3072C26.1441 14.4572 26.4004 14.8072 26.4535 15.1697C26.5473 15.7947 26.0973 16.401 25.4816 16.4791C24.716 16.576 24.0754 15.926 24.191 15.1697C24.3035 14.4104 25.1191 13.9822 25.8223 14.3072ZM20.8691 15.7979C21.8129 15.9322 22.691 16.3416 23.3691 16.9635C24.1879 17.7166 24.7098 18.6979 24.8691 19.7854C24.9098 20.0729 24.9098 20.7635 24.8691 21.0541C24.666 22.4604 23.8098 23.7385 22.6035 24.4416C21.266 25.2166 19.6879 25.2885 18.2629 24.6416C17.4348 24.2635 16.6254 23.5104 16.1598 22.6791C15.591 21.6604 15.4316 20.3635 15.7379 19.2166C16.0473 18.0572 16.8629 16.9885 17.8848 16.3979C18.8098 15.8635 19.8535 15.6541 20.8691 15.7979Z"
        fill="white" />
    <path
        d="M19.6848 17.3292C19.4316 17.3729 18.9723 17.5354 18.7441 17.6573C18.0691 18.026 17.5348 18.6604 17.2879 19.3792C17.1473 19.7979 17.1098 20.0729 17.1285 20.576C17.1504 21.1979 17.2941 21.6448 17.641 22.1635C18.0723 22.8104 18.7535 23.2917 19.5004 23.4729C19.8223 23.551 20.666 23.551 20.9879 23.4729C21.7316 23.2917 22.4191 22.8104 22.8473 22.1635C23.0504 21.8573 23.1504 21.6448 23.266 21.2667C23.341 21.0198 23.3504 20.951 23.3504 20.4354C23.3535 19.9385 23.3441 19.8448 23.2816 19.626C22.9566 18.501 22.166 17.7104 21.0473 17.3854C20.7879 17.3104 19.9785 17.276 19.6848 17.3292Z"
        fill="white" />
</svg>