<svg width="41" height="41" viewBox="0 0 41 41" fill="none" xmlns="http://www.w3.org/2000/svg">
    <rect x="0.744141" y="0.429932" width="40" height="40" rx="20" fill="#2D6F8F" />
    <g clip-path="url(#clip0_88_119)">
        <g clip-path="url(#clip1_88_119)">
            <path
                d="M13.6801 8.4767C12.8738 8.58451 11.9645 8.93607 11.2473 9.4142C10.7738 9.73295 10.0473 10.4595 9.72852 10.9329C9.37695 11.4626 9.08633 12.0954 8.91758 12.7329L8.76758 13.2814V20.4298V27.5783L8.91758 28.1267C9.19883 29.1626 9.67695 29.9923 10.427 30.747C11.3504 31.6751 12.4754 32.2236 13.7691 32.3829C14.0832 32.4204 16.1457 32.4298 21.0254 32.4204C28.5348 32.4017 28.0004 32.4204 28.9004 32.1158C30.5129 31.5673 31.8816 30.1986 32.4301 28.5861C32.7348 27.6861 32.716 28.2204 32.7348 20.7111C32.7441 15.8314 32.7348 13.7689 32.6973 13.4548C32.5379 12.1517 31.9988 11.0501 31.0613 10.1126C30.3113 9.36263 29.477 8.88451 28.441 8.60326L27.8926 8.45326L20.9316 8.44857C17.102 8.44388 13.8395 8.45795 13.6801 8.4767ZM24.6348 14.6923C24.6629 14.7579 24.6816 15.2408 24.6816 15.7658C24.6816 16.2908 24.6629 16.7736 24.6348 16.8392L24.5879 16.9611H22.1035H19.6191V18.1329V19.3048H21.7941C23.1066 19.3048 24.0207 19.3236 24.0957 19.3517L24.2129 19.3986L24.2035 20.4861L24.1895 21.5783L21.9066 21.5923L19.6191 21.6017V23.8658C19.6191 25.6048 19.6051 26.1486 19.5629 26.2095C19.5066 26.2845 19.3801 26.2892 18.1941 26.2798L16.8816 26.2658L16.8441 26.1158C16.7926 25.9236 16.816 14.7064 16.8676 14.6267C16.8957 14.5845 17.7254 14.5704 20.7488 14.5704H24.5879L24.6348 14.6923Z"
                fill="white" />
        </g>
    </g>
    <defs>
        <clipPath id="clip0_88_119">
            <rect width="24" height="24" fill="white" transform="translate(8.74414 8.42993)" />
        </clipPath>
        <clipPath id="clip1_88_119">
            <rect width="24" height="24" fill="white" transform="translate(8.74414 8.42993)" />
        </clipPath>
    </defs>
</svg>