<svg width="41" height="41" viewBox="0 0 41 41" fill="none" xmlns="http://www.w3.org/2000/svg">
    <rect x="0.744141" y="0.429932" width="40" height="40" rx="20" fill="#2D6F8F" />
    <g clip-path="url(#clip0_88_125)">
        <path
            d="M11.416 9.19394C10.652 9.45176 10.0895 10.0471 9.89258 10.7971C9.83164 11.0408 9.82227 12.1705 9.82227 20.3924C9.82227 26.9924 9.83633 29.7768 9.87383 29.9549C10.052 30.808 10.7879 31.5439 11.641 31.7221C11.9926 31.7971 29.4957 31.7971 29.8473 31.7221C30.6957 31.5439 31.366 30.8877 31.5957 30.0111C31.6566 29.7721 31.666 28.5721 31.666 20.4064C31.666 10.1924 31.6848 10.8158 31.3988 10.2908C31.1129 9.77051 30.602 9.35332 30.0348 9.17988C29.7395 9.08613 29.5801 9.08613 20.7254 9.08613L11.7207 9.09082L11.416 9.19394ZM30.0301 9.8877C30.4004 10.0611 30.6535 10.3096 30.8316 10.6705L30.9863 10.9846L31.0004 12.8689L31.0145 14.758H20.7441H10.4738L10.4879 12.8689L10.502 10.9846L10.6238 10.7268C10.8395 10.2627 11.1863 9.95801 11.6645 9.80801C11.8238 9.76113 13.502 9.75176 20.8145 9.75644L29.7676 9.76582L30.0301 9.8877ZM31.0004 22.6658L30.9863 29.9221L30.8504 30.1939C30.6863 30.5127 30.3441 30.8502 30.0348 30.9908L29.8145 31.0939H20.7441H11.6738L11.402 30.958C11.0832 30.7939 10.7504 30.4564 10.6051 30.1471L10.502 29.9221L10.4879 22.6658L10.4785 15.4143H20.7441H31.0098L31.0004 22.6658Z"
            fill="white" />
        <path
            d="M18.18 11.1487C17.8566 11.3127 17.8285 11.4206 17.8472 12.4846L17.8613 13.394L17.9972 13.5346C18.0769 13.6143 18.2128 13.7034 18.3019 13.7268C18.4003 13.7549 19.2863 13.7737 20.4394 13.7737C21.5925 13.7737 22.4785 13.7549 22.5769 13.7268C22.666 13.7034 22.8019 13.6143 22.8816 13.5346L23.0175 13.394L23.0316 12.4706C23.0457 11.669 23.0363 11.5284 22.966 11.3971C22.7925 11.069 22.8769 11.0784 20.5097 11.0643C18.4285 11.0549 18.3722 11.0549 18.18 11.1487ZM22.3847 12.4143V13.1174H20.4394H18.4941V12.4143V11.7112H20.4394H22.3847V12.4143Z"
            fill="white" />
        <path
            d="M25.1223 11.261C24.8504 11.3454 24.6441 11.5142 24.5035 11.7579C24.4004 11.9314 24.377 12.0251 24.377 12.2735C24.3816 12.7517 24.5785 13.061 25.0098 13.2532C25.6566 13.5485 26.3926 13.1267 26.491 12.4001C26.5941 11.6642 25.8301 11.0267 25.1223 11.261ZM25.7176 11.9876C25.891 12.161 25.8957 12.3579 25.7316 12.5501C25.4738 12.8595 25.0098 12.6626 25.0098 12.2501C25.0098 12.072 25.2441 11.8517 25.4316 11.8517C25.5348 11.8517 25.6238 11.8939 25.7176 11.9876Z"
            fill="white" />
        <path
            d="M28.1456 11.2659C27.9112 11.3409 27.6347 11.5799 27.5081 11.819C27.3909 12.0393 27.4003 12.5268 27.5269 12.7659C27.6534 13.0049 27.7941 13.1362 28.0566 13.2534C28.5862 13.4924 29.1956 13.2628 29.4441 12.7237C29.8378 11.8846 29.0316 10.9846 28.1456 11.2659ZM28.755 11.9737C29.0456 12.2174 28.8862 12.6956 28.5112 12.6956C28.1784 12.6956 27.9769 12.3768 28.1269 12.0862C28.2581 11.8331 28.53 11.7815 28.755 11.9737Z"
            fill="white" />
        <path
            d="M12.4801 11.9831C12.3629 12.1143 12.3676 12.7471 12.4848 12.8503C12.602 12.9534 12.8364 12.9487 12.9301 12.8456C13.0473 12.7143 13.0426 12.0815 12.9254 11.9784C12.8082 11.8753 12.5739 11.8799 12.4801 11.9831Z"
            fill="white" />
        <path
            d="M14.6315 12.0018C14.5143 12.1659 14.5284 12.7143 14.6502 12.8362C14.7862 12.9721 14.9971 12.9581 15.1143 12.8081C15.2784 12.6018 15.2362 12.0581 15.0534 11.9362C14.9409 11.8612 14.7018 11.8987 14.6315 12.0018Z"
            fill="white" />
        <path
            d="M20.2282 17.0362C19.3657 17.1393 18.597 17.3549 17.9548 17.6737C16.1829 18.5596 14.9642 20.1581 14.5517 22.1315C14.4251 22.7456 14.411 23.7721 14.5235 24.3956C14.9735 26.9034 16.7876 28.8346 19.2767 29.4627C19.7454 29.5846 19.8485 29.594 20.7439 29.594C21.6345 29.594 21.7423 29.5846 22.2064 29.4674C24.7001 28.8346 26.4954 26.9174 26.9595 24.3909C27.0626 23.8331 27.0626 22.8393 26.9595 22.2581C26.4345 19.2956 23.9454 17.1346 20.9314 17.0362C20.636 17.0268 20.3173 17.0268 20.2282 17.0362ZM21.4001 17.7112C22.0235 17.7909 22.6423 17.9737 23.2095 18.2456C24.8267 19.0377 25.9517 20.5096 26.3079 22.2909C26.4204 22.8815 26.4157 23.8752 26.2892 24.4612C25.5907 27.6721 22.4267 29.6315 19.2907 28.7924C18.311 28.5346 17.4907 28.0565 16.7548 27.3252C15.6532 26.2284 15.1001 24.8924 15.1001 23.3127C15.1001 22.3518 15.2829 21.5924 15.7189 20.7393C16.7876 18.6581 19.0939 17.4299 21.4001 17.7112Z"
            fill="white" />
        <path
            d="M20.0178 18.5127C19.3568 18.6064 18.4849 18.9627 17.9131 19.3705C17.5474 19.633 17.0412 20.1392 16.7787 20.5049C16.4881 20.9127 16.1693 21.6017 16.024 22.1408C15.9115 22.558 15.8974 22.6892 15.9021 23.3361C15.9021 23.9642 15.9209 24.1283 16.0287 24.5314C16.174 25.0845 16.5256 25.8205 16.849 26.247C17.8849 27.6111 19.5818 28.3564 21.2271 28.1689C22.3943 28.0377 23.299 27.6111 24.124 26.8049C24.8084 26.1345 25.2256 25.422 25.4646 24.5127C25.5678 24.1283 25.5865 23.9595 25.5865 23.3361C25.5912 22.6845 25.5771 22.558 25.4646 22.1408C25.0146 20.4814 23.8662 19.2486 22.2865 18.7236C21.5412 18.4752 20.7771 18.4049 20.0178 18.5127ZM21.799 19.2486C22.5818 19.4642 23.1865 19.8158 23.7256 20.3549C24.1006 20.7345 24.2834 20.983 24.5131 21.4424C24.6865 21.7939 24.8553 22.2908 24.8131 22.3283C24.7615 22.3799 23.8521 22.6799 23.3881 22.797C22.6662 22.9752 22.0053 23.0595 21.3068 23.0595C20.5568 23.0595 20.2334 23.0127 19.4928 22.8017C18.5224 22.5205 17.674 22.4127 16.9849 22.483C16.7131 22.5111 16.6193 22.5064 16.6193 22.4642C16.6193 22.3377 16.8303 21.7424 16.9803 21.4377C17.5662 20.2705 18.6256 19.4642 19.9474 19.183C20.3787 19.0939 21.3678 19.1267 21.799 19.2486ZM24.949 23.5095C24.9349 23.7908 24.8787 24.1845 24.8271 24.3908C24.4334 25.8955 23.2287 27.0674 21.6959 27.447C21.199 27.5689 20.224 27.5549 19.7131 27.4236C17.9271 26.9455 16.6615 25.4267 16.5396 23.608L16.5115 23.2049L16.8818 23.172C17.5006 23.1111 18.3162 23.172 18.8459 23.3174C19.1037 23.383 19.5021 23.4908 19.7318 23.5517C20.674 23.8049 21.8037 23.8002 23.0693 23.547C23.6224 23.4345 24.6724 23.1392 24.8224 23.0549C24.9631 22.9705 24.9771 23.0127 24.949 23.5095Z"
            fill="white" />
    </g>
    <defs>
        <clipPath id="clip0_88_125">
            <rect width="24" height="24" fill="white" transform="translate(8.74414 8.42993)" />
        </clipPath>
    </defs>
</svg>