<svg width="41" height="41" viewBox="0 0 41 41" fill="none" xmlns="http://www.w3.org/2000/svg">
    <rect x="0.744141" y="0.429932" width="40" height="40" rx="20" fill="#2D6F8F" />
    <g clip-path="url(#clip0_88_112)">
        <g clip-path="url(#clip1_88_112)">
            <path
                d="M26.5019 22.22C26.4559 22.198 24.7059 21.337 24.3949 21.225C24.2651 21.1716 24.1271 21.1411 23.9869 21.135C23.7509 21.135 23.5529 21.252 23.3979 21.484C23.2229 21.744 22.6939 22.362 22.5309 22.547C22.5089 22.571 22.4809 22.6 22.4629 22.6C22.3387 22.555 22.2159 22.506 22.0949 22.453C20.2179 21.638 18.7929 19.677 18.5979 19.347C18.5699 19.299 18.5679 19.277 18.5679 19.277C18.5749 19.252 18.6379 19.189 18.6709 19.157C18.7659 19.062 18.8689 18.937 18.9689 18.817L19.1109 18.65C19.2549 18.481 19.3199 18.35 19.3949 18.199L19.4339 18.119C19.4932 17.999 19.522 17.8663 19.5178 17.7325C19.5136 17.5987 19.4766 17.468 19.4099 17.352C19.3689 17.269 18.6299 15.486 18.5509 15.299C18.3629 14.847 18.1129 14.636 17.7659 14.636C17.7339 14.636 17.7659 14.636 17.6309 14.642C17.4669 14.649 16.5709 14.767 16.1759 15.016C15.7559 15.281 15.0459 16.124 15.0459 17.607C15.0459 18.942 15.8939 20.202 16.2569 20.681C16.2669 20.693 16.2829 20.718 16.3069 20.753C17.6999 22.787 19.4359 24.294 21.1959 24.997C22.8899 25.674 23.6929 25.753 24.1489 25.753C24.3409 25.753 24.4939 25.738 24.6289 25.724L24.7149 25.716C25.3009 25.664 26.5869 24.997 26.8799 24.184C27.1099 23.544 27.1709 22.844 27.0179 22.59C26.9129 22.418 26.7309 22.33 26.5019 22.22Z"
                fill="white" />
            <path
                d="M20.9573 8.42993C14.4573 8.42993 9.16932 13.6779 9.16932 20.1299C9.16932 22.2159 9.72732 24.2579 10.7853 26.0459L8.76132 32.0179C8.74303 32.0725 8.74016 32.131 8.75303 32.187C8.76591 32.2431 8.79402 32.2945 8.83427 32.3355C8.87451 32.3766 8.92533 32.4058 8.98111 32.4198C9.03688 32.4338 9.09544 32.4321 9.15032 32.4149L15.3783 30.4359C17.0823 31.3469 19.0083 31.8279 20.9583 31.8279C27.4553 31.8279 32.7443 26.5799 32.7443 20.1299C32.7443 13.6779 27.4563 8.42993 20.9573 8.42993ZM20.9573 29.3899C19.1233 29.3899 17.3473 28.8609 15.8193 27.8589C15.7807 27.8334 15.7369 27.8169 15.691 27.8105C15.6452 27.8041 15.5985 27.808 15.5543 27.8219L12.4343 28.8139L13.4413 25.8429C13.4573 25.7955 13.4616 25.745 13.454 25.6956C13.4463 25.6461 13.4269 25.5993 13.3973 25.5589C12.2396 23.9855 11.6168 22.0824 11.6203 20.1289C11.6203 15.0219 15.8083 10.8669 20.9573 10.8669C26.1053 10.8669 30.2933 15.0219 30.2933 20.1299C30.2933 25.2359 26.1053 29.3899 20.9573 29.3899Z"
                fill="white" />
        </g>
    </g>
    <defs>
        <clipPath id="clip0_88_112">
            <rect width="24" height="24" fill="white" transform="translate(8.74414 8.42993)" />
        </clipPath>
        <clipPath id="clip1_88_112">
            <rect width="24" height="24" fill="white" transform="translate(8.74414 8.42993)" />
        </clipPath>
    </defs>
</svg>