<svg width="41" height="41" viewBox="0 0 41 41" fill="none" xmlns="http://www.w3.org/2000/svg">
    <rect x="0.744141" y="0.429932" width="40" height="40" rx="20" fill="#2D6F8F" />
    <g clip-path="url(#clip0_88_105)">
        <g clip-path="url(#clip1_88_105)">
            <path
                d="M30.0068 10.9996C26.942 12.2692 13.7996 17.7124 10.1684 19.1964C7.73324 20.1468 9.15884 21.0372 9.15884 21.0372C9.15884 21.0372 11.238 21.75 13.0196 22.2852C14.802 22.8196 15.7524 22.2252 15.7524 22.2252L24.1268 16.5828C27.0964 14.5636 26.3836 16.2268 25.6708 16.9396C24.1268 18.4836 21.5724 20.9188 19.4348 22.8788C18.4844 23.7108 18.9588 24.4228 19.3756 24.7796C20.9196 26.086 25.1364 28.7588 25.374 28.9372C26.6284 29.8252 29.0972 31.1044 29.4724 28.4028L30.9572 19.0772C31.4324 15.93 31.9076 13.0196 31.9668 12.1876C32.1452 10.1684 30.0068 10.9996 30.0068 10.9996Z"
                fill="white" />
        </g>
    </g>
    <defs>
        <clipPath id="clip0_88_105">
            <rect width="24" height="24" fill="white" transform="translate(8.74414 8.42993)" />
        </clipPath>
        <clipPath id="clip1_88_105">
            <rect width="24" height="24" fill="white" transform="translate(8.74414 8.42993)" />
        </clipPath>
    </defs>
</svg>