<svg width="157" height="67" viewBox="0 0 157 67" fill="none" xmlns="http://www.w3.org/2000/svg">
    <rect width="157" height="67" fill="white" />
    <path
        d="M66.1285 21.0059C66.1486 26.4207 66.2488 30.9295 66.3491 31.0349C66.5295 31.2245 68.1737 30.4239 68.8755 29.8129C69.0961 29.6232 69.1562 29.539 68.9958 29.6232C68.8154 29.7286 69.0467 29.7007 69.1469 29.5321C69.2271 29.4057 68.9975 29.434 69.1178 29.5182C69.4387 29.7289 71.5624 27.2635 72.1037 26.0625C72.585 24.9669 72.585 24.9248 72.585 18.0562V11.1666H69.3367H66.0684L66.1285 21.0059Z"
        fill="#FF7F00" />
    <path
        d="M93.2978 10.682C93.4782 10.7242 93.799 10.7242 93.9996 10.682C94.18 10.6188 94.0196 10.5767 93.6386 10.5767C93.2577 10.5767 93.0973 10.6188 93.2978 10.682Z"
        fill="#6B4096" />
    <path
        d="M45.8167 11.2088C45.7565 11.3563 45.7365 15.8861 45.7565 21.2799L45.8167 31.077L45.8768 21.1324L45.917 11.1666L49.3858 11.1034L52.8346 11.0402L49.3657 10.9981C46.739 10.977 45.8768 11.0192 45.8167 11.2088Z"
        fill="#6B4096" />
    <path
        d="M118.803 27.4952C118.803 36.5339 118.823 40.2 118.843 35.649C118.883 31.077 118.883 23.6817 118.843 19.215C118.823 14.7273 118.803 18.4566 118.803 27.4952Z"
        fill="#6B4096" />
    <path
        d="M138.854 27.39C138.854 36.3654 138.873 40.0525 138.893 35.5437C138.933 31.056 138.933 23.7239 138.893 19.2151C138.873 14.7274 138.854 18.4145 138.854 27.39Z"
        fill="#6B4096" />
    <path
        d="M39.1592 22.0173C39.1592 22.5862 39.1993 22.818 39.2394 22.4809C39.2795 22.1648 39.2795 21.7013 39.2394 21.4274C39.1993 21.1746 39.1592 21.4274 39.1592 22.0173Z"
        fill="#6B4096" />
    <path
        d="M125.981 24.7985C127.044 24.8406 128.808 24.8406 129.891 24.7985C130.954 24.7774 130.071 24.7353 127.926 24.7353C125.78 24.7353 124.898 24.7774 125.981 24.7985Z"
        fill="#6B4096" />
    <path
        d="M23.0985 27.116C23.8404 27.1581 25.1036 27.1581 25.9056 27.116C26.7077 27.0949 26.1061 27.0528 24.5622 27.0528C23.0183 27.0528 22.3566 27.0738 23.0985 27.116Z"
        fill="#6B4096" />
    <path
        d="M21.7553 33.3525C21.6951 33.5 21.6751 35.944 21.7152 38.7672L21.7553 43.9292L21.8155 38.6198L21.8556 33.3103L25.0236 33.2261L28.1716 33.1628L25.0036 33.1207C22.5974 33.0996 21.8155 33.1418 21.7553 33.3525Z"
        fill="#6B4096" />
    <path
        d="M67.3717 53.305L66.6699 53.4525L67.4319 53.4946C67.8329 53.4946 68.1738 53.4104 68.1738 53.305C68.1738 53.1786 68.1537 53.1154 68.1337 53.1154C68.0935 53.1365 67.7527 53.2207 67.3717 53.305Z"
        fill="#6B4096" />
    <path
        d="M69.0557 55.0959C69.0557 56.1282 69.0757 56.5918 69.1158 56.1072C69.1559 55.6226 69.1559 54.7587 69.1158 54.2109C69.0757 53.6631 69.0557 54.0424 69.0557 55.0959Z"
        fill="#6B4096" />
    <path
        d="M78.5601 53.4525C78.8007 53.4947 79.1616 53.4947 79.3622 53.4525C79.5426 53.3893 79.3421 53.3472 78.901 53.3683C78.4599 53.3683 78.2995 53.4104 78.5601 53.4525Z"
        fill="#6B4096" />
    <path
        d="M98.5107 55.3066C98.5107 56.2336 98.5508 56.5918 98.5909 56.0862C98.631 55.6016 98.631 54.8431 98.5909 54.4006C98.5508 53.9792 98.5107 54.3795 98.5107 55.3066Z"
        fill="#6B4096" />
    <path
        d="M67.2314 54.2953C67.4118 54.3374 67.7326 54.3374 67.9331 54.2953C68.1136 54.2321 67.9532 54.19 67.5722 54.19C67.1913 54.19 67.0308 54.2321 67.2314 54.2953Z"
        fill="#6B4096" />
    <path
        d="M90.0892 54.506C90.6105 54.5481 91.4326 54.5481 91.8938 54.506C92.355 54.4639 91.9339 54.4428 90.9314 54.4428C89.9489 54.4428 89.5679 54.4639 90.0892 54.506Z"
        fill="#6B4096" />
    <path
        d="M89.9689 10.9559C84.7757 11.883 81.5876 15.0012 81.2668 19.4679C80.966 23.5764 82.5099 26.4628 85.9186 28.1905C86.6004 28.5487 88.6857 29.3283 90.5504 29.9182C95.3426 31.4562 96.3853 32.1305 96.8465 33.9424C97.1472 35.1012 96.8064 36.26 95.9442 37.0606C95.5432 37.4188 95.2023 37.7138 95.1622 37.7138C95.1221 37.7138 94.6208 37.8191 94.0193 37.9245C91.2322 38.4934 86.3798 36.85 83.1115 34.2374C82.6102 33.8371 82.149 33.5 82.0889 33.5C81.9686 33.5 79.6025 38.6619 79.6025 38.9569C79.6025 39.61 83.5326 41.9698 86.059 42.8757C87.8435 43.4867 90.9515 44.0345 92.7561 44.0345C96.2048 44.0345 99.5935 42.8125 101.558 40.8531C105.248 37.1871 105.027 30.4028 101.117 27.3899C99.8341 26.3996 98.5308 25.7886 94.5606 24.3559C90.5705 22.9232 89.4476 22.3122 88.826 21.2166C88.044 19.8893 88.4651 18.0352 89.6882 17.3399C90.1895 17.0449 90.791 16.9606 92.335 16.9606C94.0995 16.9817 94.6007 17.066 96.4856 17.7402C97.6485 18.1616 99.2526 18.8569 100.035 19.2572L101.438 20.0157L101.739 19.4257C102.521 17.8245 103.864 14.4323 103.784 14.2217C103.664 13.8635 101.157 12.5572 99.4331 11.9251C96.5858 10.9138 92.5956 10.4924 89.9689 10.9559Z"
        fill="#6B4096" />
    <path
        d="M14.8379 27.3688V43.6132H18.2065H21.555L21.4949 38.5355C21.4547 35.1223 21.5149 33.3735 21.6553 33.1839C21.8157 32.9732 23.0388 32.8889 26.5277 32.8257C31.1795 32.7415 31.1795 32.7415 32.8638 32.0672C34.8489 31.2666 36.3928 30.1078 37.255 28.7383C39.621 25.0091 39.6611 19.0044 37.3553 15.4226C36.5332 14.1584 35.6309 13.3578 34.1671 12.5783C31.9014 11.3773 31.4402 11.3141 22.8182 11.2298L14.8379 11.1245V27.3688ZM30.4176 17.6559C32.0417 18.5408 32.8037 20.2264 32.6433 22.5229C32.4828 24.672 31.8011 25.7676 30.0767 26.6103C29.2747 27.0106 28.7132 27.0739 25.3246 27.1371L21.4547 27.2213V22.1226V17.0239L25.5251 17.1081C29.2546 17.1713 29.6356 17.2135 30.4176 17.6559Z"
        fill="#6B4096" />
    <path
        d="M45.9777 22.1647C46.0378 31.8565 46.098 33.3314 46.3987 34.448C48.2234 41.0216 52.9755 44.3084 60.254 43.9713C62.8607 43.866 64.9861 43.276 66.7706 42.2015C68.0339 41.4219 69.9588 39.4204 70.7207 38.093C71.4425 36.8289 72.2646 34.3216 72.4852 32.7836L72.6256 31.7301L71.0415 33.2892C69.2369 35.0801 66.3696 37.1028 64.7655 37.7348C62.2792 38.704 58.7703 38.4301 56.304 37.0396C54.9004 36.26 54.2788 35.5436 53.4567 33.7106L52.8351 32.3411L52.775 21.7433L52.7148 11.1666H49.3061H45.8975L45.9777 22.1647Z"
        fill="#6B4096" />
    <path
        d="M111.885 27.3899V43.6132H115.293H118.702L118.662 27.432L118.602 11.272L115.253 11.2088L111.885 11.1666V27.3899Z"
        fill="#6B4096" />
    <path
        d="M131.936 18.0141V24.8616H128.026C124.137 24.8616 124.116 24.8616 124.036 25.3251C123.856 26.1257 123.314 30.0446 123.314 30.4239C123.314 30.7188 123.776 30.761 127.625 30.761H131.936V37.1871V43.6132H135.345H138.754V27.3899V11.1666H135.345H131.936V18.0141Z"
        fill="#6B4096" />
    <path
        d="M47.5216 50.882C47.5216 51.6405 47.4615 52.2515 47.4013 52.2515C47.3412 52.2515 47.0604 52.0619 46.7797 51.8301C45.9977 51.177 45.1957 51.2823 44.3937 52.1251C43.7721 52.7782 43.7119 52.9679 43.7119 54.0213C43.7119 55.3276 44.0929 56.3179 44.6944 56.676C45.2558 56.9921 46.3787 56.9289 46.8399 56.5707C47.3412 56.1704 47.5216 56.1704 47.5216 56.5707C47.5216 56.7392 47.662 56.8867 47.8224 56.8867C48.0831 56.8867 48.1232 56.3389 48.1232 53.1996C48.1232 50.0603 48.0831 49.5125 47.8224 49.5125C47.5818 49.5125 47.5216 49.8075 47.5216 50.882ZM46.9802 52.715C47.4615 53.4103 47.5016 54.9905 47.0404 55.7068C46.6394 56.3811 45.7972 56.5707 45.1957 56.1493C44.2332 55.4962 44.153 53.0732 45.0553 52.3358C45.6168 51.8933 46.5191 52.0619 46.9802 52.715Z"
        fill="#6B4096" />
    <path
        d="M50.1279 49.934C50.1279 50.1657 50.2683 50.3553 50.4287 50.3553C50.5891 50.3553 50.7295 50.1657 50.7295 49.934C50.7295 49.7022 50.5891 49.5126 50.4287 49.5126C50.2683 49.5126 50.1279 49.7022 50.1279 49.934Z"
        fill="#6B4096" />
    <path
        d="M58.75 49.934C58.75 50.1657 58.8904 50.3553 59.0508 50.3553C59.2112 50.3553 59.3515 50.1657 59.3515 49.934C59.3515 49.7022 59.2112 49.5126 59.0508 49.5126C58.8904 49.5126 58.75 49.7022 58.75 49.934Z"
        fill="#6B4096" />
    <path
        d="M70.8609 53.1365C70.8809 56.4233 70.921 56.7815 71.2418 56.8447C71.5627 56.9079 71.5827 56.634 71.5827 53.2208C71.5827 49.7444 71.5627 49.5126 71.2017 49.5126C70.8609 49.5126 70.8408 49.7233 70.8609 53.1365Z"
        fill="#6B4096" />
    <path
        d="M61.3564 50.7767C61.3564 51.1981 61.2562 51.4088 61.0556 51.4088C60.8952 51.4088 60.7549 51.5563 60.7549 51.7249C60.7549 51.8934 60.8952 52.0409 61.0556 52.0409C61.2963 52.0409 61.3564 52.3991 61.3564 54.0003C61.3564 56.3601 61.5168 56.6761 62.8201 56.8236C63.6021 56.9289 63.7625 56.8868 63.7625 56.5918C63.7625 56.339 63.5821 56.2547 63.0608 56.2547C62.1384 56.2547 61.9178 55.7912 61.9981 53.7686L62.0582 52.1462L62.9204 52.083C63.4818 52.0409 63.7625 51.9145 63.7625 51.7038C63.7625 51.4931 63.5219 51.4088 62.8602 51.4088C61.9981 51.4088 61.9579 51.3878 61.9579 50.7767C61.9579 50.3554 61.8577 50.1447 61.6572 50.1447C61.4567 50.1447 61.3564 50.3554 61.3564 50.7767Z"
        fill="#6B4096" />
    <path
        d="M50.1279 54.1477C50.1279 56.4443 50.168 56.8867 50.4287 56.8867C50.6894 56.8867 50.7295 56.4443 50.7295 54.1477C50.7295 51.8512 50.6894 51.4087 50.4287 51.4087C50.168 51.4087 50.1279 51.8512 50.1279 54.1477Z"
        fill="#6B4096" />
    <path
        d="M53.3759 51.7459C51.3908 53.1997 52.4937 57.3082 54.7394 56.7815C55.0602 56.7183 55.4211 56.5076 55.5615 56.339C55.9625 55.8334 56.1831 56.0019 56.0427 56.7183C55.9625 57.0975 55.6818 57.6453 55.381 57.9192C54.9399 58.3406 54.7394 58.3827 53.8772 58.2774C53.1152 58.172 52.9147 58.1931 52.9749 58.4038C53.035 58.5724 53.5163 58.6988 54.3183 58.7409C55.4612 58.8041 55.6016 58.762 56.143 58.172L56.7445 57.561V54.4849C56.7445 51.8934 56.7044 51.4088 56.4437 51.4088C56.2833 51.4088 56.143 51.5985 56.143 51.8302C56.143 52.062 56.0828 52.2516 56.0226 52.2516C55.9625 52.2516 55.6818 52.062 55.4011 51.8302C54.7795 51.3246 53.9975 51.2824 53.3759 51.7459ZM55.5214 52.5466C55.8622 52.9258 55.9825 53.3261 55.9825 54.0425C56.0026 55.3488 55.4612 56.1494 54.5389 56.1494C53.6366 56.1494 53.0751 55.3277 53.0751 54.0425C53.0751 52.2937 54.5188 51.4299 55.5214 52.5466Z"
        fill="#6B4096" />
    <path
        d="M58.75 54.1477C58.75 56.4443 58.7901 56.8867 59.0508 56.8867C59.3114 56.8867 59.3515 56.4443 59.3515 54.1477C59.3515 51.8512 59.3114 51.4087 59.0508 51.4087C58.7901 51.4087 58.75 51.8512 58.75 54.1477Z"
        fill="#6B4096" />
    <path
        d="M65.6273 51.5563C65.3265 51.6195 65.1661 51.8091 65.1661 52.0619C65.1661 52.399 65.2262 52.4412 65.5471 52.2516C66.5296 51.7038 68.1738 52.2516 68.1738 53.1154C68.1738 53.4525 68.0334 53.5157 67.2915 53.5157C66.0884 53.5157 65.2663 53.8739 64.9856 54.4849C64.6648 55.2434 64.7049 55.7069 65.1861 56.339C65.7275 57.0553 67.1511 57.1185 67.7727 56.4654C68.1738 56.044 68.1938 56.044 68.254 56.5075C68.254 56.655 68.4344 56.8025 68.6349 56.8446C68.9357 56.9079 68.9758 56.7182 68.9758 55.0959C68.9758 51.8723 68.1938 51.0296 65.6273 51.5563ZM68.1738 54.6956C68.1738 55.4751 67.873 55.9597 67.1913 56.2336C66.7301 56.4443 66.5095 56.4443 66.1285 56.2336C64.725 55.4541 65.3867 54.1478 67.1712 54.1478C68.1136 54.1478 68.1738 54.1899 68.1738 54.6956Z"
        fill="#6B4096" />
    <path
        d="M77.0568 51.5563C76.7761 51.5984 76.5956 51.8091 76.5956 52.0409C76.5956 52.378 76.6758 52.3991 77.2773 52.2094C78.5004 51.8091 79.8038 52.3569 79.8038 53.2629C79.8038 53.3682 79.2223 53.5157 78.5004 53.5579C77.4979 53.6211 77.0969 53.7475 76.756 54.1057C76.1946 54.6745 76.1745 55.8544 76.6959 56.4654C77.137 56.9711 78.5205 57.0554 79.122 56.5708C79.6233 56.1704 79.8038 56.1704 79.8038 56.5708C79.8038 56.7393 79.9441 56.8868 80.1246 56.8868C80.4053 56.8868 80.4254 56.5918 80.3652 54.6745C80.305 52.7572 80.2449 52.4201 79.8639 52.0198C79.4228 51.5563 78.0393 51.3245 77.0568 51.5563ZM79.8038 54.6324C79.8038 55.7701 78.5606 56.6761 77.5781 56.2547C76.9766 55.9808 76.7761 55.5173 76.9966 54.9063C77.157 54.3796 77.6583 54.1899 78.8614 54.1689C79.7035 54.1478 79.8038 54.1899 79.8038 54.6324Z"
        fill="#6B4096" />
    <path
        d="M83.0312 51.7459C81.6276 52.7993 81.7279 55.7701 83.2117 56.5707C83.9135 56.9499 84.8358 56.8446 85.3371 56.3179C85.7782 55.8333 85.9186 56.1493 85.6579 57.0764C85.3571 58.0877 84.6153 58.4669 83.4322 58.2562C82.931 58.172 82.6101 58.193 82.6101 58.3194C82.6101 58.6355 83.1315 58.783 84.2543 58.783C85.0764 58.783 85.3371 58.6776 85.8384 58.172L86.4199 57.5609V54.4848C86.4199 51.8933 86.3797 51.4087 86.1191 51.4087C85.9587 51.4087 85.8183 51.5984 85.8183 51.8301C85.8183 52.2515 85.8183 52.2515 85.1767 51.8301C84.3746 51.3245 83.6528 51.3034 83.0312 51.7459ZM85.0163 52.2515C85.8985 52.7572 85.9988 55.0116 85.1767 55.8333C84.114 56.8657 82.8107 55.9386 82.8107 54.1477C82.8107 52.4833 83.8533 51.5984 85.0163 52.2515Z"
        fill="#6B4096" />
    <path
        d="M89.5085 51.6195C87.8844 52.3147 87.5635 55.3698 89.0072 56.4443C89.8895 57.1185 92.436 57.0132 92.436 56.3179C92.436 56.1072 92.2956 56.0651 91.9948 56.1493C91.7342 56.2336 91.3733 56.339 91.1727 56.4022C90.2704 56.655 88.8268 55.6437 88.8268 54.7377C88.8268 54.4006 89.0473 54.3585 90.7517 54.3585H92.6966L92.5763 53.4525C92.3758 51.8723 90.9321 51.0085 89.5085 51.6195ZM91.5337 52.5676C92.436 53.4946 92.2354 53.7264 90.4309 53.7264C89.1275 53.7264 88.8268 53.6632 88.8268 53.4103C88.8268 52.8415 89.7692 52.0408 90.4309 52.0408C90.8118 52.0408 91.2329 52.2305 91.5337 52.5676Z"
        fill="#6B4096" />
    <path
        d="M94.2402 54.1477C94.2402 56.4443 94.2803 56.8867 94.541 56.8867C94.7816 56.8867 94.8418 56.5707 94.8418 55.3276C94.8418 52.9889 95.3029 52.0619 96.4659 52.0408C97.3883 52.0408 97.6289 52.5886 97.689 54.7798C97.7492 56.4864 97.8093 56.7814 98.1101 56.8446C98.4109 56.9078 98.451 56.7182 98.451 55.0326C98.451 54.0002 98.3507 52.8625 98.2505 52.5254C97.8695 51.4298 96.506 51.0716 95.5837 51.8301C95.3029 52.0619 95.0222 52.2515 94.9621 52.2515C94.9019 52.2515 94.8418 52.0619 94.8418 51.8301C94.8418 51.5984 94.7014 51.4087 94.541 51.4087C94.2803 51.4087 94.2402 51.8512 94.2402 54.1477Z"
        fill="#6B4096" />
    <path
        d="M101.279 51.6826C100.416 52.1462 99.9552 53.0311 99.9752 54.2109C99.9752 56.1072 100.898 56.971 102.782 56.8446C103.504 56.8025 103.785 56.6971 103.825 56.4232C103.885 56.1072 103.805 56.1072 103.183 56.2757C101.639 56.7182 100.416 55.4119 100.737 53.621C100.938 52.5254 101.74 51.9776 102.923 52.1251C103.625 52.2094 103.865 52.1672 103.865 51.9565C103.865 51.4087 102.121 51.2191 101.279 51.6826Z"
        fill="#6B4096" />
    <path
        d="M105.067 51.5984C105.067 51.6827 105.529 52.9258 106.07 54.3585L107.093 56.9289L106.712 57.6031C106.511 57.9613 106.15 58.2773 105.91 58.3195C105.669 58.3616 105.468 58.5302 105.468 58.6987C105.468 59.078 106.431 58.8883 106.912 58.3827C107.193 58.0877 109.679 51.9987 109.679 51.5773C109.679 51.4931 109.559 51.4088 109.398 51.4088C109.238 51.4088 108.797 52.2515 108.336 53.4525C107.915 54.5692 107.474 55.5173 107.373 55.5594C107.253 55.6015 106.812 54.6745 106.391 53.5157C105.93 52.2937 105.488 51.4088 105.348 51.4088C105.188 51.4088 105.067 51.4931 105.067 51.5984Z"
        fill="#6B4096" />
    <path
        d="M72.5368 12.2805C72.443 12.089 72.4024 12.0315 72.2526 11.8864C72.0515 11.688 71.8586 11.5766 71.6053 11.5116C71.4078 11.4597 71.2446 11.4567 70.8984 11.4973C70.5244 11.5421 70.3009 11.5367 70.1851 11.4809C70.0843 11.4316 69.9496 11.2887 69.9284 11.21C69.9221 11.1845 69.9071 11.1654 69.892 11.1695C69.8555 11.1799 69.7731 11.3536 69.7446 11.4871C69.6963 11.7118 69.7919 11.9734 69.9549 12.0527C69.9935 12.072 70.0256 12.0934 70.0256 12.104C70.0256 12.1125 69.9887 12.193 69.941 12.284C69.811 12.538 69.6611 12.9171 69.6239 13.0931C69.6019 13.1927 69.5883 13.3561 69.5876 13.528C69.5851 14.1074 69.7018 14.4582 70.0501 14.9248C70.3043 15.2678 70.4777 15.4278 71.0282 15.8424C71.675 16.3318 71.9984 16.5988 72.0881 16.7244C72.2355 16.929 72.2922 17.22 72.2289 17.4574C72.0891 17.9872 71.4947 18.3174 71.0594 18.1071C70.9178 18.0385 70.6996 17.8272 70.6335 17.6932C70.5653 17.5528 70.5468 17.3659 70.584 17.2154C70.6321 17.0225 70.8067 16.8982 71.0237 16.8993L71.1053 16.8998L70.9867 17.0053C70.8357 17.1403 70.8032 17.2102 70.8391 17.3419C70.9153 17.6288 71.2049 17.7471 71.4869 17.6085C71.6269 17.537 71.7306 17.4124 71.7786 17.2492C71.8701 16.9419 71.7124 16.6355 71.3822 16.481C71.2342 16.4102 71.0236 16.4048 70.8429 16.4676L70.7223 16.5115L70.697 16.3989C70.6633 16.2501 70.5483 16.0161 70.4542 15.9095C70.281 15.7091 70.0279 15.5995 69.7464 15.5981C69.6497 15.5976 69.5487 15.6034 69.5207 15.6096C69.4756 15.6221 69.4777 15.6285 69.5867 15.7543C69.7599 15.9483 69.9265 16.189 69.9925 16.3358C70.067 16.5017 70.0922 16.6419 70.0912 16.8818C70.0899 17.1789 70.1271 17.5314 70.1717 17.6611C70.2268 17.8227 70.2631 17.8886 70.387 18.0527C70.4447 18.1294 70.4938 18.1976 70.4938 18.2018C70.4938 18.2039 70.4229 18.2142 70.339 18.2222C70.0295 18.2503 69.6809 18.361 69.4654 18.5L69.4159 18.5316L69.5166 18.5936C69.7373 18.7327 70.1301 18.8472 70.3858 18.8486C70.4481 18.8489 70.491 18.8597 70.491 18.8725C70.4909 18.8852 70.452 18.9402 70.4024 18.993C70.2901 19.1197 70.1535 19.3949 70.1249 19.5582C70.1117 19.6282 70.0913 19.8764 70.0796 20.1098C70.0608 20.4917 70.0541 20.5468 70.0041 20.6676C69.9303 20.8412 69.7487 21.1098 69.5803 21.2893C69.494 21.3801 69.4572 21.4351 69.4722 21.4458C69.4872 21.4544 69.5624 21.4654 69.6397 21.4722C69.9963 21.4995 70.3365 21.3336 70.5269 21.0396C70.5615 20.9846 70.6179 20.8596 70.6484 20.76C70.6789 20.6604 70.7072 20.5778 70.7072 20.5757C70.7093 20.5736 70.7716 20.5909 70.8467 20.6125C71.1428 20.7053 71.4031 20.643 71.6038 20.4318C71.7549 20.2734 71.7853 20.2078 71.7861 20.0231C71.7874 19.7069 71.5951 19.4597 71.3116 19.4137C71.1313 19.3851 70.931 19.4945 70.8507 19.6681C70.7727 19.8332 70.8045 19.9331 70.9843 20.0932L71.0977 20.1936L70.9818 20.1802C70.8099 20.1624 70.6899 20.096 70.6195 19.9789C70.5683 19.8895 70.562 19.8576 70.5627 19.6878C70.5634 19.518 70.5722 19.4841 70.6263 19.3804C70.7693 19.1158 71.0753 18.9137 71.3331 18.915C71.6812 18.9168 71.9812 19.1136 72.1538 19.4541C72.3157 19.7712 72.2495 20.1826 71.9948 20.4508C71.874 20.5775 71.4514 20.9106 70.8996 21.3174C70.4383 21.6546 70.1642 21.9248 69.9264 22.2759C69.7296 22.5656 69.6537 22.7329 69.5923 23.0233C69.5397 23.2714 69.527 23.7149 69.567 23.9167C69.6027 24.1058 69.6919 24.3546 69.8345 24.6694C69.9665 24.9524 69.9771 25.0012 69.9191 25.0009C69.8825 25.0007 69.7681 25.1211 69.7205 25.2121C69.6902 25.2672 69.6791 25.3329 69.6786 25.456C69.678 25.6045 69.6864 25.6428 69.7503 25.7747C69.8121 25.9066 69.8227 25.9194 69.8465 25.8834C69.9915 25.6529 70.067 25.5896 70.2412 25.5523C70.338 25.5316 70.4282 25.5341 70.8148 25.5765C71.2572 25.6255 71.2809 25.6277 71.4529 25.5946C71.6551 25.5554 71.922 25.4379 72.0858 25.3156C72.241 25.1976 72.388 25.0095 72.4985 24.7872L72.5939 24.5946L72.5955 24.2041L72.5972 23.8157L72.5332 23.705C72.45 23.5602 72.2767 23.3938 72.0923 23.2825C72.0131 23.2333 71.9424 23.182 71.9381 23.1692C71.9297 23.1394 72.1994 22.8713 72.3179 22.7955C72.3976 22.745 72.4084 22.7281 72.4413 22.5818C72.461 22.497 72.5045 22.3699 72.5413 22.3043L72.6042 22.1815L72.6052 21.4387L72.6083 20.6959L72.513 20.8779C72.3375 21.2145 72.2046 21.651 72.1512 22.0688C72.1379 22.1812 72.1224 22.2745 72.1203 22.2745C72.1181 22.2745 72.0626 22.2042 71.9963 22.1189C71.8788 21.9677 71.5664 21.6434 71.4722 21.5793C71.4272 21.5472 71.425 21.5493 71.4248 21.6087C71.424 21.7955 71.515 22.1122 71.6407 22.3654C71.6876 22.4569 71.7216 22.5356 71.7152 22.5398C71.7109 22.5441 71.6271 22.5266 71.5284 22.5028C71.2816 22.44 71.0108 22.4492 70.8342 22.5289C70.6771 22.5981 70.526 22.7502 70.4372 22.9258C70.3982 22.9999 70.37 23.0634 70.3743 23.0656C70.3764 23.0698 70.4473 23.0575 70.5291 23.0409C70.856 22.9747 71.2105 22.9829 71.3692 23.0601C71.4635 23.1052 71.4462 23.1285 71.2956 23.168C70.9364 23.2595 70.6541 23.4576 70.5305 23.7052C70.4677 23.8301 70.4589 23.8683 70.4583 24.0168C70.4577 24.1505 70.4682 24.2058 70.5066 24.276C70.6324 24.5122 70.8145 24.6299 71.0573 24.6312C71.283 24.6302 71.453 24.5568 71.546 24.4193C71.5979 24.3432 71.5958 24.3305 71.5292 24.3301C71.1833 24.3283 71.0214 23.9773 71.2588 23.7514C71.522 23.5024 71.8013 23.5102 72.0838 23.7748C72.2251 23.905 72.2826 24.0284 72.2797 24.2003C72.2735 24.6417 71.7172 25.0951 71.1864 25.0924C70.7374 25.0901 70.311 24.8035 70.0937 24.3609C69.9787 24.1268 69.9301 23.9122 69.9187 23.579C69.9111 23.3349 69.9157 23.2648 69.9551 23.1059C70.0491 22.7265 70.2373 22.4218 70.6172 22.0354C70.8912 21.7567 71.1133 21.5753 71.7277 21.1264C71.9712 20.9473 72.2192 20.7533 72.2774 20.6942C72.4652 20.5063 72.6106 20.1675 72.6138 19.9128C72.6151 19.6136 72.4022 19.1498 72.1582 18.9257C72.0276 18.8083 71.8047 18.684 71.6308 18.6343C71.5665 18.6149 71.4076 18.5865 71.2766 18.5709C71.0167 18.5377 71.0145 18.5398 71.4209 18.4868C71.681 18.4542 71.8984 18.3662 72.0989 18.2186C72.3683 18.0205 72.624 17.5125 72.6255 17.175C72.6261 17.0392 72.5563 16.7821 72.4816 16.6437C72.3814 16.4607 72.2295 16.3198 71.7004 15.9223C70.9272 15.341 70.6339 15.0785 70.3561 14.712C70.2151 14.5245 70.0468 14.1862 69.9961 13.9779C69.8968 13.5805 69.9767 12.9888 70.1802 12.6291C70.2776 12.4577 70.543 12.2107 70.726 12.1162C70.9909 11.9838 71.221 11.9489 71.4549 12.0096C72.0001 12.1504 72.4085 12.6279 72.3187 13.0179C72.2618 13.2723 71.9556 13.5169 71.6956 13.5156C71.571 13.5149 71.5109 13.4913 71.3567 13.378C71.0782 13.177 71.1614 12.8273 71.5033 12.7611L71.6323 12.7385L71.6025 12.6768C71.4959 12.4746 71.0902 12.3812 70.8469 12.5009C70.6251 12.6123 70.4778 12.8768 70.5005 13.1167C70.5149 13.259 70.632 13.5058 70.7326 13.6018C70.846 13.7107 71.0433 13.8178 71.2686 13.8911C71.3844 13.9299 71.4788 13.9665 71.4788 13.975C71.4787 13.9835 71.4421 14.0066 71.3991 14.0276C71.2785 14.0843 70.8423 14.0905 70.5932 14.0362C70.488 14.0144 70.4043 13.9991 70.4043 14.0034C70.4043 14.0076 70.4341 14.0693 70.4703 14.1417C70.5619 14.3247 70.7181 14.4804 70.8811 14.5555C70.9991 14.6092 71.0377 14.6179 71.2289 14.6189C71.3707 14.6196 71.4933 14.6054 71.5901 14.5804C71.6718 14.5596 71.7428 14.5473 71.7492 14.5558C71.7556 14.5622 71.7361 14.6088 71.7058 14.6596C71.5716 14.8838 71.4387 15.3161 71.4552 15.4838L71.4613 15.5539L71.7202 15.3006C71.8627 15.1612 72.0138 14.9965 72.0549 14.9373C72.0959 14.8759 72.137 14.8252 72.1456 14.8253C72.1542 14.8253 72.1647 14.8805 72.173 14.9485C72.2205 15.3902 72.339 15.8153 72.5159 16.177L72.6181 16.3876L72.6277 15.6555L72.6351 14.9233L72.5712 14.7935C72.5371 14.7212 72.4925 14.5936 72.4735 14.5107C72.444 14.3832 72.4291 14.3513 72.3712 14.3128C72.2727 14.2444 71.9731 13.95 71.9732 13.9224C71.9733 13.9096 72.0336 13.8654 72.109 13.8233C72.2899 13.7224 72.4582 13.5705 72.5598 13.4182L72.642 13.2934L72.6437 12.8986L72.6454 12.5039L72.5368 12.2805Z"
        fill="white" />
    <path
        d="M68.8525 29.1331C68.8525 29.0287 68.9372 28.944 69.0417 28.944C69.1462 28.944 69.2309 29.0287 69.2309 29.1331V29.444C69.2309 29.5484 69.1462 29.6331 69.0417 29.6331C68.9372 29.6331 68.8525 29.5484 68.8525 29.444V29.1331Z"
        fill="#FF7F00" />
</svg>